<svg id="logo" xmlns="http://www.w3.org/2000/svg" xmlns:xlink="http://www.w3.org/1999/xlink" width="198.396" height="77.976" viewBox="0 0 198.396 77.976">
  <defs>
    <clipPath id="clip-path">
      <rect id="Rectangle_7" data-name="Rectangle 7" width="198.396" height="77.976" fill="#fff"/>
    </clipPath>
  </defs>
  <g id="Group_2" data-name="Group 2">
    <g id="Group_1" data-name="Group 1" clip-path="url(#clip-path)">
      <path id="Path_2" data-name="Path 2" d="M159.59,109.923a14.008,14.008,0,0,1,.936-5.134,12.672,12.672,0,0,1,2.591-4.151,12.453,12.453,0,0,1,3.911-2.783,11.627,11.627,0,0,1,4.894-1.032,11.16,11.16,0,0,1,4.223.815,8.927,8.927,0,0,1,3.407,2.4v-2.4h8.733v24.616h-8.733V119.52h-.1a7.108,7.108,0,0,1-3.047,2.639,10.221,10.221,0,0,1-4.39.912,11.9,11.9,0,0,1-4.87-1.007,12.317,12.317,0,0,1-3.958-2.759,12.7,12.7,0,0,1-2.639-4.175,13.993,13.993,0,0,1-.96-5.206m9.021.048a5.324,5.324,0,0,0,1.559,4.007,5.583,5.583,0,0,0,4.055,1.511,5.686,5.686,0,0,0,4.055-1.463,5.29,5.29,0,0,0,1.559-4.055,5.473,5.473,0,0,0-1.535-4.007,5.533,5.533,0,0,0-4.127-1.559,5.341,5.341,0,0,0-5.566,5.566" transform="translate(-114.71 -69.595)" fill="#fff"/>
      <path id="Path_3" data-name="Path 3" d="M276.707,53.6a4.887,4.887,0,0,1,.384-1.92,4.629,4.629,0,0,1,1.056-1.559,5.183,5.183,0,0,1,1.559-1.032,4.911,4.911,0,0,1,3.863.024,4.956,4.956,0,0,1,1.56,1.08A4.936,4.936,0,0,1,286.5,53.6a4.605,4.605,0,0,1-.408,1.943,5.024,5.024,0,0,1-1.08,1.535,5.2,5.2,0,0,1-1.56,1.032,4.6,4.6,0,0,1-1.847.384,4.716,4.716,0,0,1-1.9-.384,4.979,4.979,0,0,1-2.615-2.615,4.714,4.714,0,0,1-.384-1.9m9.261,34.068h-8.733V63.054h8.733Z" transform="translate(-198.891 -35.009)" fill="#fff"/>
      <path id="Path_4" data-name="Path 4" d="M319.428,120.239l3.167-6.094a16.393,16.393,0,0,0,1.607.936q.887.456,1.8.816a11.211,11.211,0,0,0,1.823.552,7.971,7.971,0,0,0,1.632.192,3.7,3.7,0,0,0,1.944-.5,1.537,1.537,0,0,0,.839-1.368,1.442,1.442,0,0,0-.5-1.151,3.845,3.845,0,0,0-1.3-.7,14.449,14.449,0,0,0-1.776-.456q-.984-.191-1.9-.432a15.811,15.811,0,0,1-2.064-.719,5.383,5.383,0,0,1-2.951-3.023,7.179,7.179,0,0,1-.456-2.735,7.916,7.916,0,0,1,.84-3.719,8.116,8.116,0,0,1,2.327-2.735,10.575,10.575,0,0,1,3.455-1.7,15.146,15.146,0,0,1,4.271-.576,23.706,23.706,0,0,1,4.078.36,16.653,16.653,0,0,1,3.983,1.224l-2.927,5.566a10.838,10.838,0,0,0-2.3-.864,9.64,9.64,0,0,0-2.4-.336,3.871,3.871,0,0,0-1.919.456,1.372,1.372,0,0,0-.815,1.224,1.265,1.265,0,0,0,.36.936,2.858,2.858,0,0,0,.936.6,5.841,5.841,0,0,0,1.272.36q.7.121,1.367.264a9.4,9.4,0,0,1,5.446,2.543,6.79,6.79,0,0,1,1.7,4.75,8.042,8.042,0,0,1-1.152,4.462,8.771,8.771,0,0,1-2.879,2.807,12.213,12.213,0,0,1-3.767,1.463,17.78,17.78,0,0,1-8.9-.287,19.689,19.689,0,0,1-4.846-2.112" transform="translate(-229.598 -69.594)" fill="#fff"/>
      <path id="Path_5" data-name="Path 5" d="M417.157,45.635V69.723l9.069-8.877h11.948L425.842,72.218l13.1,13.244H426.706l-9.549-10.028V85.462h-8.733V45.635Z" transform="translate(-293.566 -32.801)" fill="#fff"/>
      <path id="Path_6" data-name="Path 6" d="M510.626,109.923a14.008,14.008,0,0,1,.936-5.134,12.673,12.673,0,0,1,2.591-4.151,12.454,12.454,0,0,1,3.911-2.783,11.627,11.627,0,0,1,4.894-1.032,11.16,11.16,0,0,1,4.223.815,8.927,8.927,0,0,1,3.407,2.4v-2.4h8.733v24.616h-8.733V119.52h-.1a7.108,7.108,0,0,1-3.047,2.639,10.221,10.221,0,0,1-4.39.912,11.9,11.9,0,0,1-4.87-1.007,12.317,12.317,0,0,1-3.958-2.759,12.7,12.7,0,0,1-2.639-4.175,13.993,13.993,0,0,1-.96-5.206m9.021.048a5.324,5.324,0,0,0,1.559,4.007,5.583,5.583,0,0,0,4.055,1.511,5.686,5.686,0,0,0,4.055-1.463,5.29,5.29,0,0,0,1.559-4.055,5.473,5.473,0,0,0-1.535-4.007,5.533,5.533,0,0,0-4.127-1.559,5.341,5.341,0,0,0-5.566,5.566" transform="translate(-367.026 -69.595)" fill="#fff"/>
      <rect id="Rectangle_3" data-name="Rectangle 3" width="52.206" height="6.565" transform="translate(146.19)" fill="#fff"/>
      <rect id="Rectangle_4" data-name="Rectangle 4" width="6.33" height="46.657" transform="translate(192.066 6.565)" fill="#fff"/>
      <rect id="Rectangle_5" data-name="Rectangle 5" width="52.206" height="6.565" transform="translate(0 71.411)" fill="#fff"/>
      <rect id="Rectangle_6" data-name="Rectangle 6" width="6.33" height="46.657" transform="translate(0 24.754)" fill="#fff"/>
    </g>
    <path id="Path_7" data-name="Path 7" d="M78.153,58.6H103.1v7.965H95.331V94.783h-9.4V66.568H78.153Z" transform="translate(-56.175 -42.123)" fill="#fff"/>
  </g>
</svg>
