<svg xmlns="http://www.w3.org/2000/svg" xmlns:xlink="http://www.w3.org/1999/xlink" width="100" height="100" viewBox="0 0 100 100">
  <defs>
    <clipPath id="clip-icon">
      <rect width="100" height="100"/>
    </clipPath>
  </defs>
  <g id="icon" clip-path="url(#clip-icon)">
    <g id="icon-2" data-name="icon" transform="translate(-1.253 -2.234)">
      <path id="Path_10" data-name="Path 10" d="M66.482,66.129,69.2,68.711h0Zm2.277-2.4L66.04,61.149h0ZM80.84,62.055,78.969,65.3h0Zm9.551,5.5L88.52,70.8Zm2.691,17.229L95.8,87.364h0Zm-7.1,7.477-2.719-2.582ZM79.357,95.8l.368,3.731Zm-49.3-22.436,2.719-2.582ZM9.746,25.628a3.749,3.749,0,1,0-7.488.4Zm27.19,9.4,2.719,2.582Zm1.434-1.51L41.089,36.1Zm.783-14.048L42.215,17.3Zm-6.3-8.916-3.062,2.165h0ZM14.575,6.463a3.749,3.749,0,1,0,5.437,5.164ZM46.3,56.274l2.719-2.582Zm-2,33.777a3.749,3.749,0,1,0,3.99-6.349Zm22.241,1.23a3.749,3.749,0,1,0-1.537,7.34ZM69.2,68.711l2.277-2.4L66.04,61.149l-2.277,2.4ZM78.969,65.3l9.551,5.5,3.741-6.5-9.551-5.5ZM90.364,82.2l-7.1,7.477L88.7,94.84l7.1-7.476ZM32.779,70.785C13.4,50.384,10.152,33.176,9.746,25.628l-7.488.4c.5,9.245,4.421,28.166,25.084,49.92Zm6.876-33.18,1.434-1.51-5.437-5.164-1.434,1.51Zm2.56-20.3-6.3-8.916-6.123,4.329,6.3,8.916ZM36.936,35.023c-2.719-2.582-2.722-2.578-2.726-2.575l-.007.007-.014.016-.03.033-.067.075c-.047.054-.1.115-.153.185-.11.139-.234.309-.365.513a7.957,7.957,0,0,0-.785,1.622,11.286,11.286,0,0,0-.422,5.46c.653,4.46,3.576,10.457,11.211,18.5l5.437-5.164c-7.137-7.514-8.9-12.142-9.229-14.419a3.927,3.927,0,0,1,.067-1.859c.036-.1.06-.131.037-.094-.011.018-.034.051-.072.1-.019.024-.042.051-.069.083l-.044.05-.025.027-.013.014-.007.007S39.655,37.605,36.936,35.023Zm6.642,23.833c7.613,8.015,13.363,11.166,17.75,11.879a10.248,10.248,0,0,0,5.453-.47A7.6,7.6,0,0,0,68.39,69.4c.2-.142.366-.276.5-.394.067-.059.126-.114.178-.164.026-.024.049-.048.071-.07l.032-.033.014-.015.007-.007s.007-.007-2.712-2.59-2.715-2.586-2.712-2.589l.007-.008.013-.014.026-.026.047-.047c.03-.029.057-.054.081-.075a1.258,1.258,0,0,1,.106-.085c.047-.034.042-.022-.022,0a2.893,2.893,0,0,1-1.5.044c-2.012-.327-6.355-2.1-13.514-9.641ZM35.911,8.385C30.844,1.218,20.7.009,14.575,6.463l5.437,5.164c2.614-2.752,7.215-2.536,9.776,1.087ZM83.262,89.676a6.994,6.994,0,0,1-4.273,2.4l.737,7.463A14.431,14.431,0,0,0,88.7,94.84ZM41.089,36.1A14.93,14.93,0,0,0,42.215,17.3L36.092,21.63a7.436,7.436,0,0,1-.441,9.3ZM88.52,70.8a7.511,7.511,0,0,1,1.843,11.4L95.8,87.364C102.325,80.5,100.424,69,92.261,64.3ZM71.477,66.314A6.021,6.021,0,0,1,78.969,65.3l3.741-6.5a13.518,13.518,0,0,0-16.67,2.344ZM48.292,83.7A80.793,80.793,0,0,1,32.779,70.785L27.342,75.95A88.256,88.256,0,0,0,44.3,90.05Zm30.7,8.371a41.336,41.336,0,0,1-12.446-.791l-1.537,7.34a48.834,48.834,0,0,0,14.72.914Z" transform="translate(0 0.985)"/>
    </g>
  </g>
</svg>
